# xmcd
#
# Track frame offsets:
#	150
#	78215
#	183063
#
# Disc length: 4059 seconds
#
# Revision: 1
# Processed by: cddbd v1.5.1PL0 Copyright (c) Steve Scherf et al.
# Submitted via: CDex 1.50Beta5
#
DISCID=130fd903
DTITLE=立川談志 - ひとり会 落語CD全集 第14集
DYEAR=1900
DGENRE=(Minzoku)
TTITLE0=短命
TTITLE1=小猿七之助
TTITLE2=羽団扇
EXTD=
EXTT0=
EXTT1=
EXTT2=
PLAYORDER=
